<?xml version="1.0" encoding="UTF-8"?>
<svg width="95px" height="91px" viewBox="0 0 95 91" version="1.1" xmlns="http://www.w3.org/2000/svg" xmlns:xlink="http://www.w3.org/1999/xlink">
    <!-- Generator: Sketch 52.1 (67048) - http://www.bohemiancoding.com/sketch -->
    <title>分组 4</title>
    <desc>Created with Sketch.</desc>
    <g id="Page-1" stroke="none" stroke-width="1" fill="none" fill-rule="evenodd">
        <g id="画板" transform="translate(-449.000000, -2716.000000)">
            <g id="页面"></g>
            <g id="页面"></g>
            <g id="分组-4" transform="translate(450.000000, 2717.000000)">
                <g id="shengchan-2">
                    <path d="M62.8996362,27.5551483 L57.5243245,26.3394186 C57.0986462,24.9798979 56.5621667,23.6850059 55.9316508,22.4215004 L58.8483011,17.5118882 C59.9360439,15.7525358 60.4879167,13.1615148 58.8483011,11.4987961 L55.8847088,8.49170883 C55.0802943,7.67642933 54.0087069,7.34060777 52.9365099,7.34060777 C51.8172184,7.34060777 50.6825337,7.70843442 49.8311773,8.31591273 L45.0856194,11.3707757 C43.8562887,10.7312923 42.579254,10.1712805 41.2552773,9.73944362 L40.0413399,4.22235309 C39.678759,2.19118928 37.9289517,0 35.627424,0 L31.4343486,0 C29.1166655,0 27.6978904,2.22319437 27.2406636,4.25373973 L25.9005315,9.70743852 C24.4819089,10.1712805 23.1262312,10.7469083 21.8176478,11.4505565 L16.9780536,8.33230182 C16.1266972,7.74043951 14.9920124,7.35622378 13.872721,7.35622378 C12.7851307,7.35622378 11.7129336,7.69204534 10.9246745,8.50809791 L7.96092976,11.5145667 C6.32146655,13.1779038 6.8733394,15.7683064 7.96092976,17.5276588 L11.0193204,22.6933118 C10.4519019,23.8606473 9.93157765,25.0759132 9.53744807,26.3394186 L4.16213637,27.5551483 C2.15993982,27.922975 0,29.6817089 0,32.0329237 L0,36.2866634 C0,38.6378782 2.19148848,40.077025 4.19307538,40.540867 L9.63209404,41.9161583 C10.0102207,43.0836484 10.4834505,44.2189789 11.0031651,45.3068428 L7.94553646,50.4881118 C6.85718405,52.2474642 6.30592084,54.8378668 7.94553646,56.5012039 L10.9091287,59.5076727 C11.7129336,60.3237253 12.7851307,60.6593922 13.8567181,60.6593922 C14.9760095,60.6593922 16.1113039,60.2915656 16.9626603,59.6834688 L21.8022545,56.548825 C23.1102283,57.2530917 24.4819089,57.8443356 25.9005315,58.3081775 L27.2406636,63.7456418 C27.6978904,65.7768056 29.1166655,68 31.4343486,68 L35.627424,68 C37.9444974,68 39.678759,65.8088107 40.0413399,63.7776469 L41.2552773,58.2441673 C42.5637083,57.8123305 43.840743,57.2688623 45.0386774,56.6292243 L49.7680799,59.6834688 C50.6194364,60.2753311 51.7541211,60.6593922 52.8734126,60.6593922 C53.9611553,60.6593922 55.0333524,60.3073362 55.8216115,59.5076727 L58.7852038,56.5012039 C60.4248194,54.8378668 59.8729466,52.2474642 58.7852038,50.4881118 L55.8685535,45.5622651 C56.451975,44.394775 56.9562963,43.1796637 57.3664288,41.9161583 L62.8049902,40.540867 C64.8071868,40.077025 66.9986752,38.6378782 66.9986752,36.2866634 L66.9986752,32.0329237 C67.0611629,29.6979434 64.9018327,27.922975 62.8996362,27.5551483 Z" id="路径" stroke="#FFFFFF" stroke-width="2" fill="#000000"></path>
                    <path d="M63.703441,36.2866634 C63.703441,36.4629233 63.0889281,36.990157 62.0482797,37.2463524 L56.6098707,38.6214891 L54.8125118,39.069715 L54.2289379,40.8604541 C53.8825123,41.9161583 53.4568341,42.9718625 52.9209642,44.0113323 L52.0697601,45.6902855 L53.0311558,47.3052285 L55.9793548,52.2788509 C56.5150723,53.1425245 56.5621667,53.9585771 56.451975,54.0865975 L53.4723798,57.0930662 C53.3306394,57.2368572 52.9842139,57.2530917 52.8894155,57.2530917 C52.479283,57.2530917 52.0065104,57.1088369 51.6910238,56.8846466 L51.6440819,56.85326 L51.5809846,56.8212549 L46.8514296,53.7663919 L45.2279693,52.7106877 L43.5097107,53.6063665 C42.4375136,54.1826127 41.3337679,54.6458362 40.2306319,54.9978922 L38.4017243,55.6055252 L37.992049,57.508514 L36.7781116,63.0421482 L36.746563,63.1701686 C36.6203684,63.8736622 35.9900049,64.593081 35.627424,64.593081 L31.4343486,64.593081 C31.26045,64.593081 30.7401258,63.9698321 30.4883461,62.9139732 L29.1482141,57.4765089 L28.6909872,55.6375303 L26.9096313,55.0619024 C25.7118493,54.6778413 24.5294605,54.1662237 23.3626175,53.5423563 L21.6445113,52.6310615 L20.0048956,53.6867657 L15.1653014,56.8212549 L15.1022041,56.85326 L15.0551098,56.8846466 C14.7396232,57.1088369 14.2668506,57.2530917 13.8567181,57.2530917 C13.7620721,57.2530917 13.4154941,57.2368572 13.2732966,57.0930662 L10.3097043,54.0865975 C10.1995126,53.9741931 10.2464546,53.1425245 10.8144828,52.2312297 L13.872721,47.0498062 L14.8182662,45.4504792 L13.9990681,43.787142 C13.5102925,42.779832 13.1161629,41.820143 12.800524,40.8604541 L12.2171025,39.069715 L10.4203532,38.6214891 L4.91869446,37.2305817 C3.94114337,37.0065461 3.3261732,36.4629233 3.3261732,36.2866634 L3.3261732,32.0329237 C3.3261732,31.665097 4.03578933,31.025459 4.72940252,30.8974386 L4.79249984,30.8812042 L4.91869446,30.8812042 L10.2941586,29.6659383 L12.1855538,29.2341015 L12.7689753,27.3631177 C13.0846143,26.3714237 13.4941372,25.3319539 14.04601,24.1964689 L14.8658178,22.5332863 L13.9198154,20.9339594 L10.8300285,15.7047601 C10.2941586,14.841241 10.2464546,14.0251884 10.3572559,13.8971681 L13.3208482,10.8906993 C13.4625885,10.7469083 13.7780751,10.7312923 13.9042697,10.7312923 C14.313945,10.7312923 14.7867176,10.8749287 15.1022041,11.0827298 L15.1497557,11.1147349 L15.2122434,11.14674 L21.6914532,15.3206989 L23.4103215,14.4094042 C24.5610092,13.8017712 25.7433979,13.2895351 26.9413324,12.9060925 L28.7225359,12.3298462 L29.1797628,10.4908675 L30.5354405,4.9736224 C30.7562811,3.98192835 31.2919986,3.35867941 31.4652876,3.35867941 L35.6589726,3.35867941 C36.0215535,3.35867941 36.651917,4.07794363 36.7781116,4.78159184 L36.7936573,4.84560203 L36.8098127,4.90961221 L38.0235977,10.4268574 L38.433273,12.3298462 L40.2306319,12.9701027 C41.3499233,13.3379293 42.4530594,13.8173873 43.5568051,14.3773991 L45.2749113,15.2730778 L46.8991336,14.217219 L51.6125332,11.1625107 L51.6756305,11.1309694 L51.7225725,11.0989643 C52.0382114,10.8749287 52.5108316,10.7469083 52.9209642,10.7469083 C53.0157625,10.7469083 53.3621881,10.7626789 53.5039284,10.9069338 L56.4675207,13.9135571 C56.5937153,14.0251884 56.530618,14.856857 55.9631995,15.7683064 L53.0467015,20.6783825 L52.0851534,22.2934801 L52.9365099,23.9724332 C53.5354771,25.1399234 53.9771583,26.2596378 54.3237362,27.3467287 L54.9071578,29.217867 L56.7991626,29.6497038 L62.1744743,30.8654335 L62.2375716,30.8812042 L62.300669,30.8812042 C62.9942821,31.0092245 63.703441,31.6488626 63.703441,32.0165346 L63.703441,24.3886541 L63.703441,36.2866634 Z" id="路径" fill="#FFFFFF"></path>
                    <path d="M33.578133,20.3741022 C26.1684665,20.3741022 20.146636,26.4836734 20.146636,33.9836882 C20.146636,41.4843215 26.1846219,47.5934289 33.578133,47.5934289 C40.9873424,47.5934289 47.0247186,41.4843215 47.0247186,33.9836882 C47.0091729,26.4836734 40.9873424,20.3741022 33.578133,20.3741022 Z" id="路径" fill="#000000"></path>
                    <path d="M33.6096741,45.3056094 C27.4783457,45.3056094 22.4734188,40.2454292 22.4734188,34.0434002 C22.4734188,27.8412014 27.4783457,22.7810211 33.6096741,22.7810211 C39.7405002,22.7810211 44.7460968,27.8412014 44.7460968,34.0434002 C44.7460968,40.2454292 39.7405002,45.3056094 33.6096741,45.3056094 Z" id="路径" fill="#80CFF4"></path>
                </g>
                <g id="shengchan-2-copy" transform="translate(46.000000, 41.298507)">
                    <path d="M44.1236254,19.3297309 L40.3528843,18.4769056 C40.0542742,17.523212 39.6779378,16.6148549 39.2356356,15.7285152 L41.2816441,12.2844589 C42.0446875,11.0502863 42.4318222,9.23270439 41.2816441,8.06631962 L39.2027062,5.95687037 C38.6384154,5.38495789 37.8867049,5.14938157 37.1345666,5.14938157 C36.349392,5.14938157 35.5534192,5.40740922 34.956199,5.83355072 L31.6272255,7.97651429 C30.7648592,7.52792145 29.8690289,7.13507733 28.9402692,6.83214701 L28.0887011,2.96194918 C27.8343533,1.53710293 26.6068766,0 24.992372,0 L22.0509609,0 C20.4251235,0 19.4298634,1.55955426 19.1091222,2.98396667 L18.1690296,6.80969568 C17.1738764,7.13507733 16.2228786,7.53887596 15.3049171,8.03247993 L11.9099779,5.84504754 C11.3127577,5.42986055 10.5167848,5.16033609 9.73161027,5.16033609 C8.96867375,5.16033609 8.21653552,5.3959124 7.6635776,5.96836719 L5.58453282,8.0773826 C4.43446161,9.2442012 4.8215963,11.0613493 5.58453282,12.2955219 L7.72997104,15.9191889 C7.33193115,16.738066 6.96692761,17.590566 6.69044865,18.4769056 L2.9197076,19.3297309 C1.51518167,19.5877586 0,20.8214973 0,22.4708569 L0,25.4548236 C0,27.1041832 1.53731281,28.113734 2.94141109,28.4391156 L6.75684209,29.4038722 C7.0220951,30.2228579 7.3540623,31.0192837 7.71863818,31.7824121 L5.57373453,35.4170336 C4.81026344,36.6512062 4.42355641,38.4683543 5.57373453,39.6351729 L7.6526724,41.7441883 C8.21653552,42.3166431 8.96867375,42.552111 9.72038432,42.552111 C10.5055589,42.552111 11.3019594,42.2940833 11.8991796,41.867508 L15.2941189,39.6685788 C16.2116527,40.1626166 17.1738764,40.5773697 18.1690296,40.9027514 L19.1091222,44.717092 C19.4298634,46.1419383 20.4251235,47.7014925 22.0509609,47.7014925 L24.992372,47.7014925 C26.6177818,47.7014925 27.8343533,46.1643896 28.0887011,44.7395434 L28.9402692,40.8578487 C29.8581237,40.5549184 30.753954,40.1736795 31.5942961,39.7249783 L34.9119367,41.867508 C35.5091569,42.282695 36.3051298,42.552111 37.0903043,42.552111 C37.8533478,42.552111 38.605486,42.3051463 39.1584439,41.7441883 L41.2373818,39.6351729 C42.3875599,38.4683543 42.0004252,36.6512062 41.2373818,35.4170336 L39.1913733,31.9615889 C39.6006392,31.1426033 39.9544168,30.2902119 40.2421217,29.4038722 L44.0572319,28.4391156 C45.4617579,28.113734 46.9990707,27.1041832 46.9990707,25.4548236 L46.9990707,22.4708569 C47.0429053,20.8328857 45.5281513,19.5877586 44.1236254,19.3297309 Z" id="路径" stroke="#FFFFFF" fill="#000000"></path>
                    <path d="M44.6874885,25.4548236 C44.6874885,25.5784686 44.2564123,25.9483191 43.5264052,26.1280382 L39.7114018,27.0926864 L38.450568,27.4071135 L38.0411952,28.6633036 C37.7981803,29.4038722 37.4995702,30.1444409 37.1236614,30.8736212 L36.5265481,32.0513943 L37.2009601,33.1842647 L39.2690996,36.6732237 C39.6449015,37.2790844 39.6779378,37.8515392 39.6006392,37.9413445 L37.5104754,40.0503599 C37.4110456,40.1512282 37.1680306,40.1626166 37.1015303,40.1626166 C36.8138254,40.1626166 36.4821789,40.0614229 36.2608675,39.9041551 L36.227938,39.8821376 L36.1836757,39.8596863 L32.8659282,37.7167227 L31.727083,36.9761541 L30.5217374,37.604466 C29.7695991,38.0086985 28.9953297,38.3336463 28.221488,38.580611 L26.938523,39.0068609 L26.6511389,40.3417934 L25.7995708,44.2235965 L25.7774397,44.3134019 C25.6889151,44.8068974 25.2467198,45.3115643 24.992372,45.3115643 L22.0509609,45.3115643 C21.9289724,45.3115643 21.5639688,44.8743598 21.3873473,44.1336827 L20.4472547,40.3193421 L20.1265134,39.0293123 L18.8769055,38.6255136 C18.0366704,38.3560976 17.2072335,37.9972017 16.3887018,37.5595634 L15.1834631,36.9202969 L14.033285,37.6608655 L10.6383458,39.8596863 L10.5940835,39.8821376 L10.5610471,39.9041551 C10.3397357,40.0614229 10.0080892,40.1626166 9.72038432,40.1626166 C9.65399089,40.1626166 9.41086902,40.1512282 9.31111849,40.0503599 L7.23218062,37.9413445 C7.15488198,37.8624937 7.18781141,37.2790844 7.58627896,36.6398179 L9.73161027,33.0050879 L10.3949032,31.883172 L9.82024177,30.7163534 C9.47736937,30.0097329 9.20089041,29.3365182 8.97947204,28.6633036 L8.5702062,27.4071135 L7.3098,27.0926864 L3.45042745,26.1169752 C2.76468266,25.9598159 2.33328568,25.5784686 2.33328568,25.4548236 L2.33328568,22.4708569 C2.33328568,22.2128293 2.8310761,21.764128 3.31764058,21.6743226 L3.36190287,21.6629343 L3.45042745,21.6629343 L7.22127542,20.8104343 L8.54807506,20.507504 L8.95734089,19.1950229 C9.17875927,18.4993569 9.46603651,17.7701766 9.8531712,16.9736424 L10.4282603,15.8069322 L9.76464662,14.6850163 L7.59718416,11.016772 C7.22127542,10.4110198 7.18781141,9.83856502 7.26553771,9.74875969 L9.34447558,7.63974428 C9.44390537,7.53887596 9.66521683,7.52792145 9.75374141,7.52792145 C10.0411256,7.52792145 10.372772,7.6286813 10.5940835,7.77445228 L10.6274406,7.79690361 L10.6712752,7.81935495 L15.2163926,10.747356 L16.4221658,10.1080895 C17.2293646,9.68183953 18.0588015,9.32250972 18.8991436,9.05352756 L20.1486446,8.64929508 L20.4693858,7.35926529 L21.4203836,3.488959 C21.5753017,2.79329302 21.9511035,2.35608854 22.0726644,2.35608854 L25.0145032,2.35608854 C25.268851,2.35608854 25.7110463,2.86064703 25.7995708,3.35425099 L25.810476,3.39915366 L25.8218089,3.44405633 L26.67327,7.31436262 L26.9606542,8.64929508 L28.221488,9.09843022 C29.0066626,9.35645787 29.7805043,9.69279404 30.5547737,10.0856382 L31.7600124,10.7139501 L32.8993922,9.97327303 L36.2058069,7.83041792 L36.2500692,7.80829197 L36.2829986,7.78584064 C36.504417,7.6286813 36.8359565,7.53887596 37.1236614,7.53887596 C37.1901618,7.53887596 37.4331767,7.54993894 37.5326065,7.65113263 L39.6115444,9.7602565 C39.700069,9.83856502 39.6558067,10.4219743 39.2577668,11.0613493 L37.2118653,14.505731 L36.5373464,15.6387099 L37.1345666,16.816483 C37.5547377,17.6354686 37.8645737,18.4209399 38.1076956,19.1835261 L38.5169614,20.4961157 L39.8441887,20.799046 L43.6149298,21.6518713 L43.659192,21.6629343 L43.7034543,21.6629343 C44.1900188,21.7527396 44.6874885,22.2014409 44.6874885,22.4593601 L44.6874885,17.1084588 L44.6874885,25.4548236 Z" id="路径" fill="#FFFFFF"></path>
                    <path d="M23.5548098,14.2922806 C18.356984,14.2922806 14.1327148,18.5780993 14.1327148,23.8393037 C14.1327148,29.1009419 18.3683168,33.3864352 23.5548098,33.3864352 C28.7523148,33.3864352 32.9874892,29.1009419 32.9874892,23.8393037 C32.976584,18.5780993 28.7523148,14.2922806 23.5548098,14.2922806 Z" id="路径" fill="#000000"></path>
                    <path d="M23.5769356,31.7815469 C19.2758544,31.7815469 15.7649356,28.2318682 15.7649356,23.8811912 C15.7649356,19.530395 19.2758544,15.9807163 23.5769356,15.9807163 C27.8776643,15.9807163 31.389053,19.530395 31.389053,23.8811912 C31.389053,28.2318682 27.8776643,31.7815469 23.5769356,31.7815469 Z" id="路径" fill="#80CFF4"></path>
                </g>
            </g>
        </g>
        <g id="页面"></g>
    </g>
</svg>