<?xml version="1.0" encoding="UTF-8"?>
<svg width="91px" height="86px" viewBox="0 0 91 86" version="1.1" xmlns="http://www.w3.org/2000/svg" xmlns:xlink="http://www.w3.org/1999/xlink">
    <!-- Generator: Sketch 52.1 (67048) - http://www.bohemiancoding.com/sketch -->
    <title>zhineng</title>
    <desc>Created with Sketch.</desc>
    <g id="Page-1" stroke="none" stroke-width="1" fill="none" fill-rule="evenodd">
        <g id="画板" transform="translate(-766.000000, -2719.000000)">
            <g id="页面"></g>
            <g id="页面"></g>
            <g id="zhineng" transform="translate(767.000000, 2720.000000)">
                <path d="M46.0608146,63.970266 L46.0575705,63.970266 C45.3887306,63.970266 44.7203138,63.9632128 44.0514739,63.9502128 C32.4411347,63.7325319 21.5303835,61.6450638 13.3349081,58.0790532 C4.628,54.2888617 -0.107477021,49.1804149 0.00169255151,43.7003617 C0.104091918,38.3716064 4.79880666,33.5441809 13.2126212,30.1018085 C21.1001933,26.8772553 31.6086815,25.1004043 42.8063201,25.1004043 C43.471916,25.1004043 44.1435769,25.1074574 44.8124168,25.1210106 C56.4227559,25.3381383 67.330122,27.4222872 75.5289826,30.991617 C84.2325055,34.7818085 88.9679826,39.8908085 88.8621981,45.3703085 C88.7564136,50.6990638 84.065084,55.5264894 75.6480254,58.9688617 C67.7638384,62.1939681 57.2553502,63.970266 46.0608146,63.970266 Z M42.8063201,28.7701383 C32.0928922,28.7701383 22.0962599,30.4464468 14.6555214,33.4906596 C7.79448177,36.2971383 3.81599842,40.0408617 3.74434707,43.770617 C3.66945166,47.6245638 7.71902219,51.6158404 14.8534089,54.7232553 C22.6048716,58.095234 33.0009461,60.0692979 44.1231252,60.2799255 C44.7644612,60.2934787 45.4156704,60.2966596 46.0575705,60.2966596 L46.0608146,60.2966596 C56.7704342,60.2966596 66.7670666,58.6203511 74.2083693,55.5794574 C81.0694089,52.7729787 85.044084,49.0259362 85.1157353,45.2995 C85.19458,41.4455532 81.1444453,37.4548298 74.0072377,34.347 C66.2585959,30.9715638 55.8629445,28.9976383 44.7407655,28.7901915 C44.0956212,28.7771915 43.4509002,28.7701383 42.8057559,28.7701383 L42.8063201,28.7701383 Z" id="Fill-1" stroke="#FFFFFF" fill="#000000"></path>
                <path d="M62.9613101,83 C58.0690139,83 52.1260975,80.3249786 45.780497,75.2635173 C39.5094106,70.2627437 33.3936552,63.3770093 28.0913916,55.3520851 C21.7355664,45.7239141 17.3278917,35.5970673 15.687602,26.8401072 C13.9460459,17.533875 15.5387139,10.7259273 20.1702109,7.66113141 C21.8372529,6.55908312 23.8124357,6 26.0414146,6 C30.9337108,6 36.8734057,8.67838518 43.2188661,13.7366228 C49.4900926,18.7366956 55.6090695,25.6224301 60.9079716,33.6508581 C67.2672983,43.2794496 71.6716115,53.4062965 73.3119012,62.1632565 C75.0534573,71.466125 73.4640108,78.2768759 68.8292923,81.3422323 C67.166032,82.44372 65.190429,83 62.9613101,83 Z M26.0419748,9.72240879 C24.5509933,9.72240879 23.2668864,10.0716781 22.220328,10.766993 C18.9642597,12.9197924 17.9137795,18.5270219 19.343413,26.1551638 C20.8956025,34.4375549 25.1035459,44.0759574 31.1953504,53.3011793 C36.2841564,61.0043048 42.1284677,67.5948703 48.0981364,72.3547153 C53.6985963,76.8199521 58.977189,79.280955 62.9613101,79.280955 C64.4485099,79.280955 65.7326168,78.9283219 66.7797355,78.2369313 C70.0390252,76.084132 71.0855836,70.4763418 69.6593117,62.8481999 C68.1076825,54.5658088 63.8963775,44.9274064 57.8080747,35.7021844 C52.7192686,27.996396 46.8715957,21.4090541 40.901787,16.649209 C35.3046887,12.1806086 30.0260959,9.72240879 26.0419748,9.72240879 Z" id="Fill-3" stroke="#FFFFFF" fill="#000000"></path>
                <path d="M28.2025939,84 C26.3973879,84 24.7369906,83.5989461 23.2534726,82.7870872 C18.3889398,80.1250034 16.2511222,73.5069878 17.233552,64.1492965 C18.1619236,55.3410169 21.7325621,44.9526214 27.2917281,34.9042649 C33.3587046,23.9363681 41.1674458,14.6193533 48.7151393,9.33558358 C49.5548611,8.74897788 50.7136101,8.9513854 51.303348,9.78678659 C51.8957469,10.6192624 51.6928188,11.7750609 50.8525367,12.3616666 C43.7522934,17.3281037 36.35389,26.1972587 30.550622,36.6869277 C25.2250544,46.3140314 21.8102882,56.2040001 20.9333138,64.5333553 C20.1269232,72.2026921 21.6243058,77.6752176 25.0422931,79.5488454 C28.4636415,81.4189906 33.9111901,79.7473524 39.9917511,74.96591 C46.5974884,69.769762 53.1698946,61.6085457 58.494902,51.981442 C64.29817,41.4885691 67.8654474,30.5270803 68.2850282,21.9005914 C68.3326442,20.8797776 69.2035965,20.0946649 70.229861,20.1418887 C71.2561255,20.192595 72.0455705,21.0583643 71.9979545,22.079178 C71.5510645,31.2481135 67.8178314,42.7960688 61.7504348,53.7641049 C56.1912687,63.8124614 49.2841503,72.3713882 42.2987455,77.8673167 C37.1465561,81.9207607 32.3049909,84 28.2025939,84 Z" id="Fill-6" stroke="#FFFFFF" fill="#000000"></path>
                <path d="M54,9.50007117 C54,14.7473947 58.2550186,19 63.4980076,19 C68.7448391,19 73,14.7473947 73,9.50007117 C73,4.25260532 68.7448391,0 63.4980076,0 C58.2550186,0 54,4.25260532 54,9.50007117 Z" id="Fill-5" stroke="#000000" stroke-width="2" fill="#80CFF4"></path>
            </g>
        </g>
        <g id="页面"></g>
    </g>
</svg>