<?xml version="1.0" encoding="UTF-8"?>
<svg width="89px" height="71px" viewBox="0 0 89 71" version="1.1" xmlns="http://www.w3.org/2000/svg" xmlns:xlink="http://www.w3.org/1999/xlink">
    <!-- Generator: Sketch 52.1 (67048) - http://www.bohemiancoding.com/sketch -->
    <title>chanpinyanfa</title>
    <desc>Created with Sketch.</desc>
    <g id="Page-1" stroke="none" stroke-width="1" fill="none" fill-rule="evenodd">
        <g id="画板" transform="translate(-1060.000000, -2726.000000)">
            <g id="页面"></g>
            <g id="页面"></g>
            <g id="chanpinyanfa" transform="translate(1061.000000, 2726.000000)">
                <path d="M86,6.7778071 C86,9.1100409 85.9618506,11 85.5834812,11 L0.833688615,11 C0.833688615,11 0,9.1100409 0,6.7778071 L0,6.2221929 C0,3.89009104 1.86554591,2 4.16649003,2 L81.83351,2 C84.1349749,2 86,3.89009104 86,6.2221929 L86,6.7778071 Z" id="Fill-1" stroke="#000000" fill="#80CFF4"></path>
                <path d="M82.7573643,71 L5.24263574,71 C2.35197746,71 0,68.6163754 0,65.6868218 L0,5.31317818 C0,2.38375739 2.35197746,0 5.24263574,0 L82.7573643,0 C85.6480225,0 88,2.38375739 88,5.31317818 L88,15.5301542 C88,16.117526 87.530522,16.5927898 86.9514729,16.5927898 C86.3724237,16.5927898 85.9029457,16.117526 85.9029457,15.5301542 L85.9029457,5.31317818 C85.9029457,3.5558445 84.4918903,2.12527127 82.7573643,2.12527127 L5.24263574,2.12527127 C3.5081097,2.12527127 2.09705429,3.5558445 2.09705429,5.31317818 L2.09705429,65.6868218 C2.09705429,67.4446868 3.5081097,68.8747287 5.24263574,68.8747287 L82.7573643,68.8747287 C84.4918903,68.8747287 85.9029457,67.4446868 85.9029457,65.6868218 L85.9029457,21.4810465 C85.9029457,20.894206 86.3724237,20.4184109 86.9514729,20.4184109 C87.530522,20.4184109 88,20.894206 88,21.4810465 L88,65.6868218 C88,68.6163754 85.6480225,71 82.7573643,71 Z" id="Fill-11" fill="#000000"></path>
                <path d="M4,6 C4,6.55246004 4.44751998,7 4.99995536,7 C5.55212286,7 6,6.55246004 6,6 C6,5.44780784 5.55212286,5 4.99995536,5 C4.44751998,5 4,5.44780784 4,6 Z" id="Fill-12" stroke="#060606" fill="#FFFFFF"></path>
                <path d="M10,6 C10,6.55246004 10.4478172,7 11.0001786,7 C11.5522721,7 12,6.55246004 12,6 C12,5.44780784 11.5522721,5 11.0001786,5 C10.4478172,5 10,5.44780784 10,6 Z" id="Fill-13" stroke="#060606" fill="#FFFFFF"></path>
                <path d="M14,6 C14,6.55246004 14.4477279,7 14.9998214,7 C15.5522721,7 16,6.55246004 16,6 C16,5.44780784 15.5522721,5 14.9998214,5 C14.4477279,5 14,5.44780784 14,6 Z" id="Fill-14" stroke="#060606" fill="#FFFFFF"></path>
                <path d="M82.999479,52 C82.4476399,52 82,51.764505 82,51.4747324 L82,47.525377 C82,47.2350572 82.4476399,47 82.999479,47 C83.5523601,47 84,47.2350572 84,47.525377 L84,51.4747324 C84,51.764505 83.5523601,52 82.999479,52 Z" id="Fill-16" fill="#000000"></path>
                <path d="M82.999479,46 C82.4476399,46 82,45.7081403 82,45.3476636 L82,36.651657 C82,36.2918597 82.4476399,36 82.999479,36 C83.5523601,36 84,36.2918597 84,36.651657 L84,45.3476636 C84,45.7081403 83.5523601,46 82.999479,46 Z" id="Fill-17" fill="#000000"></path>
                <path d="M21.4114287,36.7686457 L32.4131461,30.4176038 C32.6529984,30.2667715 32.8586049,30.1594937 33.0291782,30.0956467 C33.1998828,30.0324184 33.3633708,30 33.5202982,30 C33.7970207,30 34.0164042,30.0986164 34.1777928,30.2958491 C34.3387878,30.4929581 34.4197445,30.7598533 34.4197445,31.0961635 C34.4197445,31.4094591 34.3366884,31.6820461 34.1707075,31.9140482 C34.0045953,32.1465453 33.7088474,32.3838679 33.2850382,32.6273773 L23.5149915,38.4738302 L33.2850382,44.320283 C33.7001875,44.5639161 33.9927864,44.8045796 34.1634909,45.0423972 C34.3341954,45.2802149 34.4197445,45.561587 34.4197445,45.8863899 C34.4197445,46.2343312 34.3387878,46.5069182 34.1777928,46.7041509 C34.0158794,46.9018786 33.7970207,47 33.5202982,47 C33.2988153,47 32.9390368,46.8607987 32.4408315,46.5823962 L32.4131461,46.5649497 L21.425337,40.1269224 C21.3756083,40.0964838 21.3248299,40.0674062 21.2731331,40.0399371 C20.424334,39.5526708 20,39.0196228 20,38.4390608 C20,37.8591174 20.4197416,37.3312662 21.2592248,36.855631 C21.3237803,36.8208616 21.3745586,36.7919078 21.4114287,36.7686457 Z M63.5750566,40.2312306 L52.5867227,46.5649497 C52.3468703,46.715782 52.1398206,46.8259056 51.9645237,46.8955681 C51.7892268,46.9651069 51.6278382,47 51.4797018,47 C51.2028481,47 50.9839894,46.9013836 50.8226008,46.7041509 C50.6605562,46.5069182 50.5806491,46.2343312 50.5806491,45.8863899 C50.5806491,45.5730943 50.6677727,45.2946918 50.8435945,45.0511824 C51.0183665,44.8075493 51.318182,44.5639161 51.7430408,44.320283 L61.4854021,38.5087233 L51.7430408,32.6273773 C51.3002061,32.3722369 50.9952735,32.1315734 50.8292925,31.9052631 C50.6631804,31.6790765 50.5806491,31.4094591 50.5806491,31.0961635 C50.5806491,30.7598533 50.6605562,30.4929581 50.822076,30.2958491 C50.9839894,30.0986164 51.2028481,30 51.4797018,30 C51.7010535,30 52.0562396,30.1333857 52.5452602,30.4001572 C52.5636297,30.4117883 52.577538,30.4176038 52.5867227,30.4176038 L63.5884401,36.8730776 C63.6247853,36.8962159 63.6760885,36.9252935 63.740644,36.9600629 C64.5801272,37.4356981 65,37.9634256 65,38.5434927 C65,39.123436 64.5848508,39.6512872 63.7544211,40.1269224 C63.6806809,40.1733229 63.6212426,40.2080922 63.5750566,40.2312306 Z" id="Fill-18" fill="#000000"></path>
                <path d="M37.9995646,52 C37.665061,52 37.3530576,51.8260594 37.1675556,51.5369804 C36.9824285,51.2485505 36.9483032,50.8824964 37.0771796,50.5620043 L47.0772886,25.6391688 C47.1789147,25.3846184 47.3741669,25.1832886 47.6192945,25.0782752 C47.8644222,24.9733916 48.1398002,24.9739108 48.3849279,25.0798329 C48.6295556,25.1858847 48.8239327,25.3886424 48.9250588,25.6431928 C49.0255599,25.8977432 49.0250599,26.1837068 48.9230588,26.437738 L38.9229497,51.3605735 C38.767698,51.7479159 38.403444,52 37.9995646,52 Z" id="Fill-19" fill="#000000"></path>
            </g>
        </g>
        <g id="页面"></g>
    </g>
</svg>