<?xml version="1.0" encoding="UTF-8"?>
<svg width="87px" height="82px" viewBox="0 0 87 82" version="1.1" xmlns="http://www.w3.org/2000/svg" xmlns:xlink="http://www.w3.org/1999/xlink">
    <!-- Generator: Sketch 52.1 (67048) - http://www.bohemiancoding.com/sketch -->
    <title>hezuo</title>
    <desc>Created with Sketch.</desc>
    <g id="Page-1" stroke="none" stroke-width="1" fill="none" fill-rule="evenodd">
        <g id="画板" transform="translate(-1362.000000, -2721.000000)">
            <g id="页面"></g>
            <g id="页面"></g>
            <g id="hezuo" transform="translate(1363.000000, 2722.000000)">
                <path d="M84.9333134,24.3296177 C85.4642509,17.9676227 82.8099779,12.1354055 77.501743,6.83358764 C62.1074575,-8.54198455 45.6517117,6.83358764 45.1207741,6.83358764 L41.4049371,10.6591918 L39.173085,8.42406052 C35.3654726,5.18816061 32.9118028,1.00147405 22.8258558,1.00147405 C16.9866834,1.00147405 11.6784485,3.65212411 6.37010996,8.42406052 C2.12333543,12.6657012 0,17.9676227 0,23.2694406 C0,33.8730763 8.49354906,42.8866535 11.147511,45.5374071 C21.9771515,56.7205445 30.0993819,65.1078976 35.5142021,70.6994663 C37.0592496,72.2949466 39.3768209,74.6881672 42.4669159,77.8791279 C43.5283762,79.4697043 45.3932179,80 46.9857195,80 C48.5781174,80 51.2696093,79.4697043 52.7417497,77.5442707 C54.2472499,75.8480902 54.8749519,73.9178041 54.6248558,71.7534122 C57.0049683,72.1215663 59.0139891,71.5029526 60.6519183,69.8975711 C62.0129475,68.5775244 62.6328286,66.6126229 62.5115614,64.0028666 C64.1039593,64.0028666 65.7788259,63.6889518 67.2394648,62.2458175 C68.6550217,60.4985274 69.0677226,58.5536441 68.4775675,56.4111675 C71.0460662,56.910958 73.3205443,56.0250868 75.3010017,53.7535539 C77.281459,51.4820209 76.6902573,48.4437387 73.5273963,44.6387073 C78.2716877,40.9573166 84.4023758,33.3431949 84.9333134,24.3296177 Z" id="Fill-1" stroke="#FFFFFF" fill="#000000"></path>
                <path d="M46,9.5602868 C46.9364513,8.18855979 62.3075366,-4.28018714 76.1684917,8.37172701 C81.6862798,13.4082184 83.4780252,18.9014153 82.9156267,24.7511279 C82.3532282,32.9413425 73.6797578,42.2622451 71.4883713,42.9437182 L54,25.1503485 C45.5894497,32.6841229 38.9217293,36.45101 33.9968389,36.45101 C30.6227772,36.45101 26.7911278,34.3725233 23.9794647,31.4479527 L46,9.5602868 Z" id="路径" fill="#FFFFFF"></path>
                <path d="M47.4822268,77.634044 C46.107091,77.3986513 44.2320554,76.0260865 41.85712,73.5163497 L47.2808808,66.4121026 L51.0305451,69.94144 C51.655774,70.529797 52.2809462,71.9794832 52.1206249,73.5163497 C51.9109604,75.5262281 49.5449305,77.9871331 47.4822268,77.634044 Z" id="路径" fill="#80CFF4"></path>
                <path d="M72.9321239,52.85011 C71.8642477,53.9158919 68.8917346,54.2199756 67.8241713,53.6870847 C66.55665,52.7533376 62.2819262,48.6226007 55,41.2948738 C55,41.2948738 53.6958262,40 53.4409607,39.6966173 C52.9070227,39.1640385 52.1550493,39.3215124 51.7841259,39.6966173 C51.4132026,40.0717221 51.6253722,41.2948738 52.3705966,42.0698813 L64.9249296,55.1474369 L65.4584506,55.6803279 C66.5263268,57.2786885 66.2835651,59.2482905 65.2161061,60.3136561 C64.1482299,61.379438 61.721614,61.6779163 60.1202169,60.6121345 L48.1013795,47.6884205 C47.1475307,47.0530618 46.4470708,46.9054596 46,47.245614 C45.3293938,47.7558457 45.3293938,48.5975999 45.7068085,49.2867812 L57.9847774,62.0735624 L58.5187155,62.6064533 C59.0526535,63.1393443 59.5862788,64.2047099 59.5862788,65.2704918 C59.5862788,66.3359615 59.0526535,66.8688525 58.5187155,67.9342181 C57.9847774,68.4671091 56.4076536,69.2957257 55.3397774,69.2957257 C54.2722141,69.2957257 53.738276,68.7628348 52.670817,68.2299438 L49.4675013,65.0333266 C50.1794883,64.3228053 37.893324,56.7652484 12.6090084,42.3606557 C9.9396309,39.6966173 3,31.7047099 3,22.6474369 C3,17.8525631 4.60139714,14.1230549 8.33823376,10.3931304 C12.6090084,6.13114754 18.6084631,4 23.4131759,4 C31.9543082,4 36.6868432,10.1203853 36.6868432,10.1203853 L39.7795833,13.1688409 L22.6166197,30.6393443 L21.6840788,31.7047099 C25.4209154,35.9671091 29.6916901,38.0982566 34.4964029,38.0982566 C43.0375352,38.0982566 51.0451465,31.1722352 54.2479408,27.9752017 L60.1202169,34.3687484 C60.1202169,34.3687484 60.1202169,34.9017434 60.6541549,34.9017434 L72.9321239,47.6884205 C73.4660619,48.2214155 75.15492,51 72.9321239,52.85011 Z" id="路径" fill="#80CFF4"></path>
                <path d="M23.6644514,45.1914701 L23.665326,45.1903869 C23.6603179,45.1955582 23.6603487,45.1955935 23.6644515,45.1914701 Z M11.2399372,56.3541499 C9.81378277,54.7512805 9.51395,51.5141697 10.9000887,50.0036735 L18.6790965,39.6741638 L18.7594931,39.5801292 C18.8270815,39.5103247 19.0554933,39.2599591 19.0951659,39.2180888 C19.6922899,38.587888 20.3166182,38.2986028 21.5789185,38.1319062 C21.5983487,38.1293362 21.5983487,38.1293362 21.6177536,38.1267547 C22.9090622,37.9547497 23.22944,37.9379298 23.8890894,38.1238118 C24.8123471,38.3839758 25.6079677,39.0573038 26.5202965,40.3133429 C27.7739808,42.0393393 27.37513,43.846093 26.0514218,45.5327729 C25.8735648,45.7593998 25.6876934,45.9724333 25.4854819,46.1872071 C25.3950454,46.2832619 25.1826342,46.5002966 25.1437435,46.536559 L16.8507389,56.8149897 C15.8351385,58.5719635 12.2583418,58.07255 11.2399372,56.3541499 Z" id="路径" stroke="#000000" stroke-width="2" fill="#FFFFFF"></path>
                <path d="M25.6402401,61.6817497 C25.4410006,62.0087881 25.0965178,62.4144014 24.5793411,62.8078569 C23.883964,63.3368831 23.0269824,63.7077421 22.0079089,63.8530472 C19.3941237,64.2257351 17,62.2292655 17,59.5987347 C17,58.0106039 17.4464216,56.6844004 18.3387501,55.6841123 L27.3420435,45.1502621 C28.7616571,43.7409868 31.3930079,43.382275 33.3574321,45.3366289 C35.1400134,47.1100721 35.9424001,49.7146942 34.4447453,51.1953583 L25.6402401,61.6817497 Z" id="路径-copy" stroke="#000000" stroke-width="2" fill="#FFFFFF"></path>
                <path d="M32.6402401,68.6817497 C32.4410006,69.0087881 32.0965178,69.4144014 31.5793411,69.8078569 C30.883964,70.3368831 30.0269824,70.7077421 29.0079089,70.8530472 C26.3941237,71.2257351 24,69.2292655 24,66.5987347 C24,65.0106039 24.4464216,63.6844004 25.3387501,62.6841123 L34.3420435,52.1502621 C35.7616571,50.7409868 38.3930079,50.382275 40.3574321,52.3366289 C42.1400134,54.1100721 42.9424001,56.7146942 41.4447453,58.1953583 L32.6402401,68.6817497 Z" id="路径-copy-2" stroke="#000000" stroke-width="2" fill="#FFFFFF"></path>
                <path d="M40.6402401,74.6817497 C40.4410006,75.0087881 40.0965178,75.4144014 39.5793411,75.8078569 C38.883964,76.3368831 38.0269824,76.7077421 37.0079089,76.8530472 C34.3941237,77.2257351 32,75.2292655 32,72.5987347 C32,71.0106039 32.4464216,69.6844004 33.3387501,68.6841123 L42.3420435,58.1502621 C43.7616571,56.7409868 46.3930079,56.382275 48.3574321,58.3366289 C50.1400134,60.1100721 50.9424001,62.7146942 49.4447453,64.1953583 L40.6402401,74.6817497 Z" id="路径-copy-3" stroke="#000000" stroke-width="2" fill="#FFFFFF"></path>
            </g>
        </g>
        <g id="页面"></g>
    </g>
</svg>