<?xml version="1.0" encoding="UTF-8"?>
<svg width="87px" height="82px" viewBox="0 0 87 82" version="1.1" xmlns="http://www.w3.org/2000/svg" xmlns:xlink="http://www.w3.org/1999/xlink">
    <!-- Generator: Sketch 52.1 (67048) - http://www.bohemiancoding.com/sketch -->
    <title>hezuo</title>
    <desc>Created with Sketch.</desc>
    <g id="Page-1" stroke="none" stroke-width="1" fill="none" fill-rule="evenodd">
        <g id="画板" transform="translate(-1362.000000, -2721.000000)">
            <g id="页面"></g>
            <g id="页面"></g>
            <g id="hezuo" transform="translate(1363.000000, 2722.000000)">
                <path d="M84.9333134,24.3296177 C85.4642509,17.9676227 82.8099779,12.1354055 77.501743,6.83358764 C62.1074575,-8.54198455 45.6517117,6.83358764 45.1207741,6.83358764 L41.9358747,10.5449326 L40.3434768,8.42406052 C39.8125392,8.42406052 32.9118028,1.00147405 22.8258558,1.00147405 C16.9866834,1.00147405 11.6784485,3.65212411 6.37010996,8.42406052 C2.12333543,12.6657012 0,17.9676227 0,23.2694406 C0,33.8730763 8.49354906,42.8866535 11.147511,45.5374071 L9.55500942,47.6581756 C7.43167399,50.3093435 7.96261153,54.5509842 10.6164698,57.2017378 C11.6784485,58.2623292 13.2708464,58.7922107 14.8632443,58.7922107 L15.3941818,58.7922107 C15.3941818,60.9129793 16.4557459,62.5035557 18.0481438,63.5641471 C19.1100188,64.6243243 20.7025204,65.15462 22.2949183,65.15462 L22.8258558,65.15462 L22.8258558,65.6849157 C22.8258558,67.2754921 23.8873162,68.865965 25.4802325,69.9261422 C26.5416928,70.9868371 28.1340907,71.5171328 29.7265923,71.5171328 L30.7884674,71.5171328 C30.7884674,73.1076057 31.8499277,74.6980786 33.4424293,75.7583593 C34.5043044,76.8189507 36.0967022,77.3488322 37.6892038,77.3488322 C39.2816017,77.3488322 40.3434768,76.8189507 41.4049371,76.288655 L42.4669159,77.8791279 C43.5283762,79.4697043 45.6517117,80 47.2442132,80 C48.8366111,80 50.9600502,79.4697043 52.0219253,77.8791279 C53.6143232,76.8189507 54.144846,74.6980786 54.144846,73.1076057 L54.144846,72.57731 L54.6757835,72.57731 C56.2682851,72.57731 58.3916205,72.0470143 59.4534956,70.4565414 C61.0459972,69.3962607 61.5769347,67.2754921 61.5769347,65.6849157 L61.5769347,65.15462 C63.1693326,65.15462 65.2927717,64.6243243 66.3542321,63.0338514 C67.94663,61.9736742 68.4775675,59.8528021 68.4775675,58.2623292 L68.4775675,57.7320335 L69.0086087,57.7320335 C70.6010066,57.7320335 72.724342,57.2017378 73.7859061,55.6111614 C75.3783039,54.5509842 75.9092415,52.430112 75.9092415,50.839225 C75.9092415,48.7188706 75.3783039,47.1278799 73.7859061,45.5374071 L72.724342,44.4772299 C78.5636181,40.7658849 84.4023758,33.3431949 84.9333134,24.3296177 Z" id="Fill-1" stroke="#FFFFFF" fill="#000000"></path>
                <path d="M46.7160836,9.06027859 C47.2590891,8.50421572 61.3741563,-4.29294575 74.404061,9.06027859 C79.2899439,14.0679958 81.4615416,19.0752784 80.9185361,24.6390584 C80.3755307,32.4289374 75.4896478,39.1052779 71.6893517,43 L53.7735642,24.0829956 L52.6879774,25.7520535 C52.1449719,25.195556 43.4583688,35.7670533 33.6866031,35.7670533 C30.4288884,35.7670533 27.7147093,34.6540582 25,31.8724398 L46.7160836,9.06027859 Z" id="路径" fill="#FFFFFF"></path>
                <path d="M12.1661963,54.1357535 C11.0504502,52.9829745 10.4923593,50.6777543 11.6081053,49.5254256 L19.4198532,39.1524413 C19.9779441,38.5760518 20.5360351,38 21.6517811,38 C22.7679631,38 23.3256181,38 23.8838181,38.5760518 C24.441909,39.1524413 25,39.7288307 25,40.8811594 C25,41.4575489 25,42.0339384 24.441909,42.6098776 C23.8838181,42.6098776 23.8838181,43.1863796 23.3256181,43.7627691 L14.9563242,54.1357535 C14.3981242,55.2880822 12.7242872,55.2880822 12.1661963,54.1357535 Z" id="路径" fill="#FFFFFF"></path>
                <path d="M29.3225546,69 C28.2148201,69 27.6610069,69 27.1076263,68.4136826 C26.5538132,67.8273651 26,66.6550737 26,66.0687563 C26,65.4824388 26,64.3102619 26.5538132,63.7239445 L27.1076263,63.137627 L35.4133099,52.585974 C35.9666905,52 36.5205037,52 37.0743168,52 L37.6276974,52 C38.1816188,52 39.2892451,52 39.8426257,52.585974 C40.950252,53.7586088 41.5036326,55.5171032 40.3964389,56.6892801 L32.0907553,67.2410477 C32.0907553,67.2410477 32.0907553,67.8273651 31.5369421,67.8273651 C30.4297484,68.4136826 29.8759352,69 29.3225546,69 Z" id="路径" fill="#FFFFFF"></path>
                <path d="M21.5440582,62 C20.3624748,62 19.7717407,62 19.1814681,61.4136826 C18.5907341,60.8273651 18,59.6550737 18,59.0687563 C18,58.4824388 18,57.3102619 18.5907341,56.7239445 L19.1814681,56.137627 L28.0408639,45.585974 C28.6311365,45 29.2218706,45 29.8126046,45 L30.4028773,45 C30.9937267,45 32.1751948,45 32.7654674,45.585974 C33.9469355,46.7586088 34.5372081,48.5171032 33.3562015,49.6892801 L24.4968057,60.2410477 C24.4968057,60.2410477 24.4968057,60.8273651 23.9060716,60.8273651 C22.7250649,61.4136826 22.1343309,62 21.5440582,62 Z" id="路径-copy" fill="#FFFFFF"></path>
                <path d="M34.111312,73.194013 C33.555656,72.6155384 33,72.0375157 33,70.8805665 C33,70.3019789 33,69.7239561 33.555656,69.1454815 L41.8888688,58.734972 C41.8888688,58.734972 41.8888688,58.1564974 42.4446333,58.1564974 C42.9998553,57.5784746 43.5555113,57 44.6663894,57 C45.2220454,57 45.7777014,57 46.888688,57.5784746 C47.444344,58.1564974 48,58.734972 48,59.8914693 C48,61.0484185 48,61.6270061 47.444344,62.2050289 L38.5558007,72.6155384 C37.4444887,74.3505104 35.7778461,74.3505104 34.111312,73.194013 Z" id="路径" fill="#FFFFFF"></path>
                <path d="M49.8746979,75.9409575 C49.3125412,76.4704788 48.1873489,77 47.0625961,77 C45.9374039,77 45.3751373,76.4704788 44.2499451,75.9409575 L42,73.2940751 L46.5,68 L49.8746979,71.1764037 C50.4374039,71.7059249 51,72.7645538 51,73.8231827 C51,74.352704 50.4374039,75.4118499 49.8746979,75.9409575 Z" id="路径" fill="#FFFFFF"></path>
                <path d="M72.3984986,52.4833984 C71.3306225,53.5491803 69.1952872,53.5491803 68.1277239,53.0162894 C68.1277239,53.0162894 68.1277239,52.4833984 67.5937858,52.4833984 L55.8494422,39.6966173 C55.8494422,39.6966173 55.3159212,39.1637263 54.7818788,39.1637263 C54.2479408,38.6311475 53.1804817,39.1637263 52.6465436,39.6966173 C52.1126056,40.2295082 52.1126056,41.2948738 52.6465436,42.3606557 L64.9249296,55.1474369 L65.4584506,55.6803279 C66.5263268,57.2786885 65.9923887,58.8769451 64.9249296,59.9423108 C63.8570535,61.0080927 61.721614,61.0080927 60.1202169,59.9423108 L48.375769,47.1555296 L47.8422479,46.6226386 C47.3083099,46.0901639 46.2404337,46.0901639 45.7068085,46.6226386 C45.1728704,47.1555296 45.1728704,48.2214155 45.7068085,49.2867812 L57.9847774,62.0735624 L58.5187155,62.6064533 C59.0526535,63.1393443 59.5862788,64.2047099 59.5862788,65.2704918 C59.5862788,66.3359615 59.0526535,66.8688525 58.5187155,67.9342181 C57.9847774,68.4671091 56.9173183,69 55.8494422,69 C54.7818788,69 54.2479408,68.4671091 53.1804817,67.9342181 L49.9771661,64.7376009 C51.0451465,63.671819 51.0451465,62.0735624 51.0451465,60.4752017 C51.0451465,58.8769451 49.9771661,57.2786885 48.375769,56.2128026 C46.7743718,55.1474369 45.1728704,54.614546 43.0375352,54.614546 C43.0375352,53.0162894 41.9700761,51.4179287 40.3681576,50.3521468 C38.7667605,48.2214155 37.1653634,47.6884205 35.563862,48.2214155 L35.563862,47.6884205 C35.563862,46.0901639 34.4964029,44.4919073 32.8945887,43.4261254 C31.8270253,41.8277648 30.2256282,41.2948738 28.624231,41.2948738 L28.624231,40.7623991 C28.624231,39.1637263 27.5562507,37.5653657 25.9548535,36.5 C24.3534564,35.4342181 23.285476,34.9017434 21.1505578,34.9017434 C19.5487436,34.9017434 17.9472422,35.9671091 16.8797831,37.5653657 L12.6090084,42.3606557 C9.9396309,39.6966173 3,31.7047099 3,22.6474369 C3,17.8525631 4.60139714,14.1230549 8.33823376,10.3931304 C12.6090084,6.13114754 17.4133041,4 22.2180169,4 C30.7591492,4 36.631321,10.3931304 36.631321,10.3931304 L38.2332395,12.524382 L20.6166197,30.6393443 L21.6840788,31.7047099 C25.4209154,35.9671091 29.6916901,38.0982566 34.4964029,38.0982566 C43.0375352,38.0982566 51.0451465,31.1722352 54.2479408,27.9752017 L60.1202169,34.3687484 C60.1202169,34.3687484 60.1202169,34.9017434 60.6541549,34.9017434 L72.9321239,47.6884205 C73.4660619,48.2214155 74,49.2867812 74,50.3521468 C73.4660619,50.8850378 73.4660619,51.9508197 72.3984986,52.4833984 Z" id="路径" fill="#80CFF4"></path>
            </g>
        </g>
        <g id="页面"></g>
    </g>
</svg>